<?xml version="1.0" standalone="no"?>
<!DOCTYPE svg PUBLIC "-//W3C//DTD SVG 20010904//EN"
 "http://www.w3.org/TR/2001/REC-SVG-20010904/DTD/svg10.dtd">
<svg version="1.0" xmlns="http://www.w3.org/2000/svg"
 width="3500.000000pt" height="3500.000000pt" viewBox="0 0 3500.000000 3500.000000"
 preserveAspectRatio="xMidYMid meet">
<metadata>
Created by potrace 1.14, written by Peter Selinger 2001-2017
</metadata>
<g transform="translate(0.000000,3500.000000) scale(0.100000,-0.100000)"
fill="#000000" stroke="none">
<path d="M17137 32494 c-1 -1 -90 -5 -197 -9 -239 -9 -288 -11 -415 -19 -215
-15 -251 -18 -395 -31 -25 -2 -72 -7 -105 -10 -33 -3 -80 -7 -105 -10 -25 -3
-67 -7 -95 -10 -27 -3 -66 -7 -85 -10 -52 -7 -109 -14 -168 -21 -29 -3 -63 -7
-75 -10 -12 -2 -42 -7 -67 -10 -25 -3 -56 -7 -70 -9 -14 -2 -47 -7 -75 -11
-27 -3 -59 -8 -70 -10 -11 -2 -36 -6 -55 -9 -19 -3 -44 -7 -56 -9 -12 -2 -45
-7 -75 -11 -30 -4 -56 -8 -59 -10 -3 -2 -24 -6 -46 -9 -22 -4 -51 -9 -64 -11
-14 -3 -38 -7 -55 -10 -16 -2 -41 -7 -55 -9 -65 -14 -78 -16 -115 -22 -22 -3
-43 -8 -46 -10 -4 -2 -26 -6 -49 -9 -24 -3 -46 -8 -50 -10 -5 -3 -27 -7 -50
-10 -24 -3 -46 -8 -50 -10 -4 -2 -20 -7 -36 -9 -16 -3 -40 -8 -54 -11 -14 -3
-34 -8 -45 -10 -26 -6 -190 -44 -235 -55 -19 -4 -45 -11 -58 -14 -13 -3 -31
-7 -40 -10 -9 -3 -30 -8 -47 -11 -16 -3 -88 -21 -160 -40 -71 -20 -137 -37
-145 -39 -8 -3 -42 -12 -75 -21 -33 -9 -68 -18 -78 -20 -9 -2 -21 -6 -25 -9
-5 -3 -19 -7 -33 -9 -13 -3 -71 -19 -129 -37 -58 -17 -127 -38 -155 -46 -27
-8 -57 -18 -65 -21 -8 -3 -19 -7 -25 -8 -5 -2 -39 -13 -75 -25 -36 -12 -76
-24 -89 -26 -14 -3 -29 -8 -35 -12 -6 -4 -13 -7 -16 -7 -14 -2 -442 -152 -490
-172 -8 -3 -19 -7 -25 -8 -13 -4 -394 -153 -420 -165 -11 -5 -65 -28 -120 -51
-101 -41 -114 -47 -218 -93 -32 -14 -59 -26 -61 -26 -2 0 -42 -17 -88 -39 -45
-21 -108 -50 -138 -64 -30 -13 -95 -44 -145 -68 -49 -24 -92 -44 -95 -44 -8
-2 -324 -162 -420 -213 -128 -67 -231 -123 -270 -145 -19 -11 -51 -29 -70 -39
-85 -45 -392 -223 -470 -273 -19 -12 -96 -59 -170 -105 -125 -77 -502 -325
-630 -415 -69 -48 -330 -236 -350 -252 -8 -6 -64 -49 -125 -94 -60 -45 -122
-92 -136 -103 -15 -12 -40 -31 -55 -43 -107 -84 -266 -211 -304 -243 -25 -21
-81 -68 -125 -105 -658 -550 -1384 -1284 -1920 -1940 -49 -60 -92 -112 -95
-115 -5 -5 -44 -54 -167 -210 -36 -47 -120 -157 -185 -245 -65 -88 -122 -165
-127 -171 -18 -22 -158 -222 -196 -279 -22 -33 -43 -62 -46 -65 -22 -18 -409
-623 -409 -639 0 -5 -3 -11 -7 -13 -11 -4 -113 -174 -113 -187 0 -6 -4 -11 -9
-11 -5 0 -14 -12 -20 -27 -6 -16 -24 -49 -40 -75 -16 -25 -41 -67 -55 -92 -14
-25 -46 -82 -71 -126 -25 -43 -45 -84 -45 -89 0 -5 -3 -11 -7 -13 -14 -6 -367
-699 -447 -878 -16 -36 -44 -96 -61 -135 -42 -91 -119 -269 -121 -275 0 -3
-11 -27 -23 -55 -29 -66 -57 -134 -132 -320 -4 -11 -17 -41 -28 -67 -11 -27
-17 -48 -14 -48 3 0 1 -6 -5 -12 -5 -7 -21 -44 -35 -83 -14 -38 -40 -108 -57
-155 -17 -47 -33 -89 -34 -95 -2 -5 -6 -17 -9 -25 -45 -122 -232 -689 -241
-735 -1 -5 -10 -37 -20 -70 -10 -33 -20 -69 -22 -80 -2 -11 -8 -31 -13 -45 -5
-14 -13 -38 -17 -55 -4 -16 -8 -34 -10 -40 -11 -38 -77 -284 -80 -298 -2 -10
-6 -27 -9 -37 -3 -10 -7 -27 -9 -37 -2 -10 -13 -54 -24 -98 -21 -82 -90 -390
-98 -435 -3 -14 -7 -32 -9 -40 -2 -8 -7 -31 -10 -50 -3 -19 -12 -62 -20 -95
-7 -33 -16 -76 -19 -95 -3 -19 -8 -46 -11 -60 -6 -28 -22 -118 -30 -170 -3
-19 -8 -48 -11 -65 -3 -16 -7 -42 -9 -57 -3 -16 -7 -41 -10 -56 -3 -16 -7 -44
-9 -63 -3 -19 -8 -45 -11 -59 -2 -14 -8 -50 -11 -80 -3 -30 -7 -57 -9 -60 -2
-3 -6 -34 -10 -70 -4 -36 -9 -74 -11 -85 -2 -11 -7 -40 -9 -65 -3 -25 -7 -61
-10 -80 -2 -19 -7 -60 -10 -90 -4 -30 -8 -66 -10 -80 -2 -14 -7 -52 -10 -85
-3 -33 -7 -80 -10 -105 -3 -25 -7 -72 -10 -105 -2 -33 -6 -82 -9 -110 -7 -74
-15 -167 -22 -280 -22 -352 -28 -565 -28 -995 0 -481 8 -731 39 -1165 4 -60
11 -141 20 -225 2 -25 7 -72 10 -105 7 -79 15 -152 20 -195 4 -35 12 -104 20
-170 2 -19 6 -54 9 -77 4 -24 8 -62 11 -85 3 -24 8 -54 10 -68 2 -14 7 -45 10
-70 3 -25 7 -56 10 -70 2 -14 7 -43 10 -65 3 -23 8 -52 10 -65 3 -14 7 -41 10
-60 8 -63 16 -115 20 -130 2 -8 7 -30 10 -47 3 -18 7 -48 10 -65 3 -18 8 -40
10 -48 2 -8 6 -31 9 -50 3 -19 8 -46 11 -60 3 -14 7 -36 10 -50 3 -14 7 -36
10 -50 3 -14 7 -36 10 -50 3 -14 7 -36 10 -50 3 -14 7 -36 10 -50 12 -62 16
-79 30 -145 9 -38 18 -79 20 -90 3 -11 7 -30 10 -42 3 -13 7 -31 9 -40 15 -65
28 -121 32 -140 2 -12 9 -34 14 -48 5 -14 8 -25 5 -25 -2 0 1 -15 6 -32 6 -18
12 -41 15 -50 10 -40 14 -59 19 -78 2 -12 14 -55 25 -98 12 -42 23 -84 25 -93
2 -9 13 -49 25 -89 12 -40 23 -80 25 -89 2 -9 15 -54 30 -101 29 -96 27 -89
44 -150 18 -65 61 -202 70 -225 15 -36 62 -179 67 -205 3 -13 9 -29 13 -35 5
-5 11 -21 13 -35 5 -24 69 -208 91 -260 6 -14 11 -28 12 -32 2 -5 4 -10 5 -13
1 -3 3 -8 4 -12 4 -19 173 -452 202 -518 10 -22 18 -42 18 -45 1 -7 30 -76 61
-145 13 -27 36 -81 53 -120 48 -109 81 -184 120 -265 19 -41 36 -77 36 -80 1
-5 28 -60 132 -275 64 -130 177 -348 248 -480 93 -171 114 -207 184 -330 42
-71 82 -143 91 -160 9 -16 18 -32 21 -35 3 -3 32 -50 64 -105 33 -55 63 -101
68 -103 4 -2 8 -8 8 -13 0 -25 358 -567 563 -853 127 -176 331 -451 351 -472
6 -6 22 -26 36 -45 77 -104 404 -500 545 -658 230 -262 318 -355 636 -676 264
-266 515 -506 629 -601 19 -16 48 -42 65 -59 16 -16 80 -72 140 -124 61 -51
124 -105 140 -120 69 -60 208 -172 520 -419 6 -4 78 -58 160 -120 83 -61 155
-115 160 -120 6 -4 75 -54 155 -110 80 -56 150 -105 155 -110 60 -48 568 -376
785 -506 80 -48 152 -91 160 -96 23 -14 210 -121 255 -145 22 -12 56 -31 75
-42 198 -112 592 -314 820 -421 210 -98 247 -115 270 -125 14 -6 27 -11 30
-12 3 -1 25 -11 50 -22 76 -35 304 -135 315 -137 6 -2 26 -10 45 -18 39 -17
302 -122 310 -124 3 0 19 -6 35 -13 17 -7 55 -22 85 -33 30 -11 62 -22 70 -25
8 -3 20 -7 25 -9 6 -2 70 -25 143 -52 73 -28 134 -50 135 -50 1 -1 9 -3 17 -6
111 -37 297 -98 305 -100 6 -2 17 -6 25 -9 13 -5 201 -62 240 -73 8 -2 17 -3
20 -3 3 0 19 -5 35 -11 40 -16 222 -69 259 -76 16 -2 33 -7 38 -10 4 -3 16 -7
25 -9 10 -2 45 -12 78 -21 33 -9 68 -18 78 -20 10 -2 27 -6 37 -9 10 -3 28 -8
39 -10 12 -3 30 -7 41 -10 11 -3 29 -7 41 -10 11 -2 29 -7 39 -10 10 -3 27 -7
37 -9 10 -2 45 -11 78 -19 33 -9 71 -18 85 -21 43 -9 71 -15 88 -20 9 -3 31
-8 47 -11 17 -2 41 -7 55 -10 114 -26 249 -54 295 -61 22 -3 42 -7 45 -9 3 -2
26 -6 50 -10 25 -3 61 -10 80 -15 19 -5 52 -11 73 -14 20 -3 54 -9 75 -12 20
-3 44 -7 52 -9 8 -3 33 -7 55 -10 22 -4 51 -8 65 -10 14 -3 42 -7 64 -10 21
-4 48 -8 60 -11 11 -2 46 -7 76 -10 30 -3 57 -7 60 -9 3 -2 34 -6 70 -10 36
-4 74 -9 85 -11 11 -2 40 -6 65 -9 25 -3 60 -8 79 -10 18 -3 59 -8 90 -11 31
-3 68 -7 82 -9 14 -3 55 -7 90 -10 35 -3 80 -8 99 -10 19 -2 67 -7 105 -10 39
-3 90 -8 115 -10 76 -7 245 -19 445 -32 170 -11 1492 -10 1660 1 72 4 150 9
175 11 68 4 229 16 285 21 28 3 73 7 100 9 74 6 154 14 210 21 28 3 66 7 85 9
19 2 60 6 90 10 30 4 66 8 80 10 14 2 48 6 75 9 132 17 181 24 283 41 15 2 47
6 72 9 25 3 56 8 70 11 13 2 40 7 60 10 20 3 47 8 60 10 14 3 39 7 55 10 39 5
102 15 129 21 11 2 46 8 76 14 30 6 66 12 80 15 14 3 36 7 50 10 14 3 36 7 50
10 14 3 41 8 60 11 19 3 43 7 52 10 18 5 48 12 93 19 17 3 38 8 47 11 22 6 56
14 93 20 17 3 75 17 130 30 55 13 109 26 120 29 51 10 68 15 85 20 19 6 46 12
90 21 14 3 34 8 45 11 11 4 25 8 30 9 9 2 213 57 255 69 8 2 47 13 85 23 39
11 97 28 130 38 33 10 62 18 65 19 3 1 32 9 65 20 33 10 62 19 65 20 15 3 191
59 225 72 22 8 51 17 65 20 13 2 31 10 39 16 8 7 16 11 18 9 6 -5 212 63 313
103 33 13 213 79 305 112 22 8 46 20 54 26 8 7 15 10 15 7 1 -5 196 69 211 80
6 4 21 11 33 15 13 4 45 16 70 28 26 11 52 22 57 23 6 1 36 14 67 28 32 15 60
26 63 26 3 -1 18 6 33 14 15 8 110 52 212 98 102 45 322 151 490 235 323 161
414 210 705 373 167 94 547 322 592 356 17 13 34 24 38 24 3 0 85 53 183 117
97 65 181 120 187 122 5 2 15 9 21 15 7 6 42 31 79 56 81 56 333 233 360 254
11 9 81 62 155 118 74 56 139 105 145 110 5 4 66 51 135 105 69 54 127 100
130 103 3 3 55 46 115 95 116 95 369 311 445 381 25 22 77 69 115 104 352 319
758 730 1121 1135 86 96 302 350 412 485 29 36 60 74 69 84 8 10 47 60 87 110
39 50 73 93 76 96 41 38 580 790 580 809 0 5 4 11 8 13 11 4 186 271 317 483
97 156 335 562 335 571 0 2 14 26 30 54 50 84 293 545 319 605 5 11 41 88 81
170 58 121 173 372 220 480 4 11 20 45 34 76 13 30 34 80 46 110 11 30 29 72
39 94 10 22 46 112 80 200 35 88 74 186 87 218 13 31 21 57 17 57 -3 0 -1 6 4
13 8 9 31 67 38 97 2 7 15 41 27 70 5 14 25 70 43 125 19 55 41 117 49 137 9
21 13 38 10 38 -4 0 -2 6 3 13 6 6 14 26 18 42 10 38 6 23 45 145 19 58 34
107 35 110 1 6 44 146 56 180 4 14 14 45 20 70 7 25 13 47 14 50 1 3 7 25 14
50 6 25 20 74 31 110 34 120 79 295 85 329 3 19 10 42 16 52 5 11 8 19 5 19
-2 0 0 16 6 36 5 20 12 45 14 55 2 11 6 28 9 39 3 11 7 29 10 41 2 11 6 28 9
37 3 9 8 29 11 45 5 27 10 50 20 97 4 14 8 36 11 50 3 14 11 53 19 86 15 66
22 99 31 153 3 18 8 43 10 55 3 11 7 32 10 46 2 14 7 39 11 55 3 17 7 40 9 52
1 11 4 29 8 40 3 10 8 36 11 58 3 23 8 52 10 65 12 58 29 160 40 235 3 23 7
51 10 64 2 13 7 42 9 65 3 22 7 50 10 61 2 11 7 47 11 80 4 33 9 74 11 90 10
65 13 92 19 145 3 30 8 71 11 91 9 71 13 106 19 170 6 72 13 142 20 209 5 49
14 152 20 240 2 30 8 102 12 160 10 134 10 1810 0 1951 -4 58 -9 130 -12 160
-2 29 -7 82 -10 117 -9 104 -15 175 -19 217 -2 22 -7 72 -11 110 -4 39 -8 81
-10 95 -10 91 -16 138 -19 155 -2 11 -7 51 -11 88 -3 37 -8 76 -10 85 -1 9 -6
40 -10 67 -4 28 -8 59 -10 70 -2 11 -6 40 -9 65 -10 77 -16 115 -21 140 -3 14
-8 45 -11 70 -3 25 -8 54 -10 65 -2 11 -6 31 -8 45 -7 40 -20 115 -21 120 -1
3 -5 25 -9 50 -5 25 -10 54 -12 65 -2 11 -7 34 -9 50 -3 17 -8 37 -10 45 -2 8
-6 31 -9 50 -6 35 -11 63 -21 110 -9 41 -26 123 -31 150 -3 14 -7 33 -10 42
-3 9 -7 25 -9 35 -8 39 -37 169 -41 186 -2 9 -6 27 -10 40 -3 12 -7 31 -9 42
-4 19 -70 280 -80 318 -14 50 -34 126 -39 147 -2 8 -12 42 -22 75 -10 33 -19
65 -20 70 -1 6 -23 80 -49 165 -26 85 -55 184 -66 220 -11 36 -51 157 -89 270
-39 113 -72 212 -75 220 -49 158 -305 811 -328 839 -7 8 -11 17 -11 20 2 7
-11 45 -26 76 -5 11 -19 43 -31 70 -31 73 -79 179 -157 350 -20 44 -97 199
-170 345 -129 257 -141 280 -162 318 -6 9 -14 27 -19 38 -5 12 -41 77 -79 145
-94 169 -115 206 -147 264 -15 28 -42 73 -59 100 -17 28 -38 64 -46 80 -8 17
-28 50 -45 75 -17 25 -39 62 -50 83 -11 20 -23 37 -27 37 -5 0 -8 5 -8 10 0
13 -131 224 -142 228 -4 2 -8 8 -8 12 0 5 -13 28 -28 52 -16 24 -64 97 -108
163 -43 66 -81 122 -84 125 -13 13 -70 102 -70 109 0 5 -3 11 -8 13 -4 2 -52
66 -107 143 -209 294 -544 727 -755 975 -25 29 -58 69 -75 89 -16 20 -46 54
-66 76 -20 22 -92 103 -160 179 -316 355 -813 856 -1110 1118 -258 227 -346
303 -404 352 -38 32 -88 73 -110 92 -165 141 -606 479 -880 674 -287 204 -847
570 -873 570 -5 0 -12 4 -14 8 -1 4 -39 29 -83 55 -44 26 -87 52 -95 57 -8 5
-49 29 -90 52 -41 24 -83 47 -92 53 -9 5 -29 17 -45 26 -153 85 -245 136 -324
179 -111 60 -754 380 -763 380 -4 0 -50 21 -104 46 -53 25 -117 54 -142 64
-25 10 -70 29 -100 43 -107 48 -142 62 -555 227 -38 15 -100 38 -160 61 -33
12 -69 25 -80 30 -61 24 -603 207 -635 214 -8 2 -42 12 -75 23 -49 17 -107 35
-157 48 -5 1 -9 2 -10 4 -2 1 -10 3 -18 5 -8 2 -55 16 -105 30 -93 28 -109 32
-210 60 -56 15 -322 83 -355 90 -8 2 -30 8 -47 14 -18 5 -33 8 -33 6 0 -3 -11
0 -25 5 -14 5 -36 12 -48 14 -12 3 -76 17 -142 31 -66 15 -129 28 -140 31 -20
4 -48 10 -92 19 -13 3 -33 7 -45 10 -13 3 -36 8 -53 11 -16 3 -48 9 -70 14
-35 7 -59 12 -140 25 -11 2 -45 8 -75 14 -30 6 -68 13 -85 16 -16 2 -41 7 -55
10 -13 2 -42 7 -65 10 -60 9 -97 15 -125 20 -31 6 -71 12 -130 20 -25 3 -56 8
-70 10 -14 2 -43 7 -65 9 -22 3 -57 8 -77 11 -92 13 -112 15 -156 20 -125 14
-149 17 -172 20 -25 4 -136 15 -195 20 -52 5 -178 16 -219 20 -59 7 -250 19
-431 29 -254 15 -391 18 -783 20 -227 1 -414 1 -415 0z"/>
</g>
</svg>
